<svg height="200px" width="200px" version="1.1" id="Layer_1" xmlns="http://www.w3.org/2000/svg" xmlns:xlink="http://www.w3.org/1999/xlink" viewBox="0 0 512 512" xml:space="preserve" fill="#000000"><g id="SVGRepo_bgCarrier" stroke-width="0"></g><g id="SVGRepo_tracerCarrier" stroke-linecap="round" stroke-linejoin="round"></g><g id="SVGRepo_iconCarrier"> <g> <path style="fill:#F1B14F;" d="M256,0c141.383,0,256,114.617,256,256S397.383,512,256,512S0,397.383,0,256S114.617,0,256,0L256,0z"></path> <path style="fill:#FED9CA;" d="M512,255.736v0.01V255.736z"></path> <path style="fill:#F0973E;" d="M90.662,348.585l-0.026,0.026c9.259,9.44,16.545,19.299,21.304,28.28 c0,0,45.688,44.68,46.819,46.819c0,0,17.005,16.793,36.082,35.715c-4.764-8.769-11.89-18.328-20.88-27.494l0.026-0.026 l-0.992-0.982l-0.062-0.057c-21.795-21.795-33.163-46.225-26.812-56.502c-1.917,1.183-4.325,1.752-7.12,1.752 C127.054,376.12,108.107,365.703,90.662,348.585L90.662,348.585z M223.509,129.989l-0.072,0.057L64.14,289.343 c-9.027,9.027,2.361,35.095,25.469,58.208l0.057,0.052l-0.047-0.047c-23.107-23.107-34.506-49.165-25.469-58.208L223.509,129.989 L223.509,129.989z M308.973,117.604c1.819,1.648,3.633,3.374,5.425,5.167l0,0C312.606,120.978,310.792,119.252,308.973,117.604 L308.973,117.604z M308.829,117.475l0.088,0.078L308.829,117.475L308.829,117.475z M403.604,117.252 c23.107,23.107,34.506,49.165,25.469,58.208l-0.119,0.119l0,0l-30.874,30.874c22.87,23.02,34.108,48.86,25.112,57.856l-0.119,0.119 l0,0L231.151,456.345c-2.103,2.103-5.131,3.1-8.825,3.1c-5.487,0-12.448-2.196-20.059-6.226l-6.815,6.815 c23.965,23.769,50.938,50.638,51.527,51.738l0.76,0.021l1.421,0.036c2.279,0.062,4.547,0.171,6.836,0.171 c141.383,0,256-114.617,256-256v-0.253v-0.005c-0.01-10.882-0.78-21.583-2.108-32.114 C509.153,222.848,404.482,118.131,403.604,117.252L403.604,117.252z M265.017,94.202c-3.669,0-6.676,0.982-8.779,3.054 C258.341,95.189,261.348,94.207,265.017,94.202c0.677,0,1.374,0.031,2.093,0.098C266.391,94.238,265.694,94.202,265.017,94.202 L265.017,94.202z M345.278,91.902l-30.874,30.874l-0.005-0.005l0.005,0.005L345.278,91.902L345.278,91.902L345.278,91.902 L345.278,91.902z M354.222,88.683c-3.694,0-6.722,0.997-8.825,3.1C347.499,89.681,350.527,88.683,354.222,88.683L354.222,88.683 L354.222,88.683z"></path> <path style="fill:#E6E6E6;" d="M345.278,91.902L153.355,283.825c-9.042,9.042,2.361,35.1,25.469,58.208 s49.165,34.506,58.208,25.469l191.922-191.922L345.278,91.902L345.278,91.902z"></path> <path style="fill:#E2D1B6;" d="M370.86,149.996l-0.01,0.01c9.761,9.761,17.387,20.023,22.327,29.339l-12.287,12.287 c5.596,4.072,11.3,8.934,16.835,14.468l0.351,0.357l30.874-30.874c-2.098,2.025-5.084,2.981-8.707,2.981 C408.058,178.56,388.594,167.725,370.86,149.996L370.86,149.996z"></path> <path style="fill:#FFFFFF;" d="M429.073,175.46c-9.042,9.042-35.105-2.361-58.208-25.469 c-23.107-23.107-34.506-49.165-25.469-58.208c9.042-9.042,35.105,2.361,58.208,25.469 C426.711,140.36,438.11,166.418,429.073,175.46L429.073,175.46z"></path> <path style="fill:#6EBEC5;" d="M413.055,159.447c-4.47,4.47-19.651-3.472-33.912-17.734 c-14.261-14.261-22.203-29.442-17.734-33.912c4.47-4.47,19.651,3.472,33.912,17.734S417.524,154.978,413.055,159.447 L413.055,159.447z"></path> <path style="fill:#2F8E98;" d="M391.658,126.036c0.532,0.512,1.064,1.033,1.597,1.566 C392.722,127.07,392.19,126.548,391.658,126.036L391.658,126.036z M391.58,125.959L391.58,125.959L391.58,125.959L391.58,125.959z M391.286,125.675l0.103,0.098L391.286,125.675L391.286,125.675z M391.074,125.478l0.207,0.196L391.074,125.478L391.074,125.478z M390.464,124.905l0.532,0.501L390.464,124.905L390.464,124.905z M379.654,116.126c3.379,2.31,7.069,5.281,10.789,8.758 C386.723,121.407,383.039,118.436,379.654,116.126L379.654,116.126z M379.634,116.11l0.021,0.016L379.634,116.11L379.634,116.11z M378.905,115.62l0.641,0.429L378.905,115.62L378.905,115.62z M378.885,115.609l0.01,0.01L378.885,115.609L378.885,115.609z M364.37,113.186c-0.682,4.805,6.164,15.78,16.84,26.456c10.19,10.19,20.643,16.886,25.758,16.886c1.013,0,1.814-0.264,2.361-0.811 c3.328-3.328-3.87-15.915-16.075-28.119l-12.045,12.045C370.534,128.966,363.688,117.991,364.37,113.186L364.37,113.186z M367.76,110.721l0.072,0.005L367.76,110.721L367.76,110.721z M367.496,110.716L367.496,110.716L367.496,110.716L367.496,110.716z"></path> <path style="fill:#E6E6E6;" d="M393.177,179.341c-4.94-9.316-12.572-19.583-22.332-29.344 c-23.107-23.107-49.16-34.516-58.208-25.469L153.34,283.82c-9.027,9.027,2.361,35.1,25.469,58.208l1.08,1.013l-0.052,0.052 c9.259,9.44,16.545,19.299,21.304,28.28l7.012-7.012l0,0L393.177,179.341L393.177,179.341z"></path> <path style="fill:#2F8E98;" d="M391.58,125.959l0.077,0.072L391.58,125.959L391.58,125.959z M391.389,125.773l0.191,0.186 L391.389,125.773L391.389,125.773z M391.286,125.675L391.286,125.675L391.286,125.675L391.286,125.675z M390.996,125.401 l0.078,0.072L390.996,125.401L390.996,125.401z M390.443,124.884l0.021,0.021L390.443,124.884L390.443,124.884z M379.654,116.126 L379.654,116.126L379.654,116.126L379.654,116.126z M379.546,116.054l0.088,0.062L379.546,116.054L379.546,116.054z M378.9,115.62 L378.9,115.62L378.9,115.62L378.9,115.62z M367.837,110.721c2.635,0.14,6.547,1.896,11.052,4.888 C374.379,112.623,370.472,110.866,367.837,110.721L367.837,110.721z M367.496,110.716c-1.008,0-1.808,0.264-2.361,0.811 c-0.413,0.413-0.667,0.977-0.765,1.664c0.098-0.687,0.351-1.245,0.765-1.664C365.683,110.974,366.483,110.716,367.496,110.716 L367.496,110.716z M367.496,110.716L367.496,110.716l0.264,0.005L367.496,110.716L367.496,110.716z"></path> <path style="fill:#146A75;" d="M367.496,110.716L367.496,110.716c-1.013,0-1.814,0.264-2.361,0.811 c-0.413,0.413-0.667,0.977-0.765,1.664c-0.682,4.805,6.164,15.78,16.84,26.456l12.045-12.045c-0.532-0.532-1.064-1.054-1.597-1.566 l-0.078-0.072l0,0l-0.191-0.186l-0.103-0.098l0,0l-0.207-0.196l-0.077-0.072l-0.532-0.501l-0.021-0.021 c-3.72-3.472-7.41-6.449-10.789-8.758h-0.005l-0.021-0.016l-0.088-0.062l-0.641-0.429H378.9l-0.016-0.01 c-4.506-2.987-8.417-4.743-11.052-4.888l-0.072-0.005L367.496,110.716L367.496,110.716z"></path> <path style="fill:#D45446;" d="M339.397,180.746L147.475,372.669c-9.042,9.042,2.361,35.1,25.469,58.208 s49.165,34.506,58.208,25.469l191.923-191.922L339.397,180.746L339.397,180.746z"></path> <path style="fill:#C2382C;" d="M172.995,430.928l0.992,0.982l0.026-0.026L172.995,430.928L172.995,430.928z M364.98,238.84 l-0.01,0.01c9.761,9.761,17.387,20.023,22.327,29.339l-176.855,176.85l-8.164,8.164l-0.01,0.01 c7.616,4.03,14.576,6.226,20.059,6.226c3.695,0,6.722-0.997,8.825-3.1l191.923-191.922c-2.098,2.025-5.084,2.981-8.707,2.981 C402.183,267.409,382.713,256.568,364.98,238.84L364.98,238.84z"></path> <path style="fill:#E46A5D;" d="M423.193,264.309c-9.042,9.042-35.105-2.361-58.208-25.469 c-23.107-23.107-34.506-49.165-25.469-58.208c9.042-9.042,35.1,2.361,58.208,25.469 C420.831,229.203,432.235,255.266,423.193,264.309L423.193,264.309z"></path> <path style="fill:#FFFFFF;" d="M407.175,248.291c-4.47,4.464-19.651-3.472-33.912-17.734 c-14.261-14.261-22.203-29.442-17.734-33.912c4.464-4.47,19.651,3.472,33.912,17.734 C403.702,228.64,411.644,243.826,407.175,248.291L407.175,248.291z"></path> <path style="fill:#D45446;" d="M403.449,244.565c-3.328,3.328-15.915-3.87-28.119-16.075 c-12.205-12.205-19.403-24.792-16.075-28.119c3.328-3.328,15.915,3.87,28.12,16.075S406.777,241.243,403.449,244.565 L403.449,244.565z"></path> <path style="fill:#D45446;" d="M364.964,238.84c-23.107-23.107-49.16-34.516-58.208-25.469L147.465,372.669 c-9.027,9.027,2.361,35.1,25.469,58.208l1.08,1.013l-0.052,0.052c9.259,9.44,16.545,19.299,21.304,28.28l7.012-7.012l8.164-8.164 l176.855-176.855C382.357,258.868,374.725,248.606,364.964,238.84L364.964,238.84z"></path> <path style="fill:#E9A9A2;" d="M361.57,199.559c-0.987,0.01-1.772,0.269-2.315,0.811c-0.553,0.553-0.816,1.359-0.811,2.377 c-0.005-1.018,0.258-1.824,0.811-2.377C359.797,199.833,360.583,199.57,361.57,199.559L361.57,199.559z M361.621,199.559 L361.621,199.559c5.1,0,15.527,6.671,25.696,16.829C377.148,206.235,366.721,199.559,361.621,199.559L361.621,199.559z"></path> <path style="fill:#C2382C;" d="M361.621,199.559h-0.047c-0.987,0.01-1.772,0.269-2.315,0.811c-0.553,0.553-0.816,1.359-0.811,2.377 c0.016,5.115,6.707,15.563,16.886,25.743l12.045-12.045l-0.062-0.062C377.148,206.23,366.721,199.559,361.621,199.559 L361.621,199.559z"></path> <path style="fill:#5AABB3;" d="M256.072,97.421L64.15,289.343c-9.042,9.042,2.361,35.1,25.469,58.208s49.165,34.506,58.208,25.469 l191.922-191.923L256.072,97.421L256.072,97.421z"></path> <path style="fill:#277F8A;" d="M281.655,155.515L89.619,347.551c17.728,17.728,37.198,28.569,49.382,28.569 c3.695,0,6.722-0.997,8.825-3.1l191.922-191.923c-2.098,2.02-5.084,2.981-8.707,2.981 C318.853,184.084,299.388,173.243,281.655,155.515L281.655,155.515z"></path> <path style="fill:#6EBEC5;" d="M339.868,180.979c-9.042,9.042-35.1-2.361-58.208-25.469 c-23.107-23.107-34.506-49.165-25.469-58.208c9.042-9.042,35.105,2.361,58.208,25.469 C337.506,145.878,348.91,171.941,339.868,180.979L339.868,180.979z"></path> <path style="fill:#FFFFFF;" d="M323.85,164.966c-4.47,4.47-19.651-3.472-33.912-17.734c-14.261-14.261-22.203-29.442-17.734-33.912 c4.47-4.47,19.651,3.472,33.912,17.734C320.377,145.315,328.319,160.501,323.85,164.966L323.85,164.966z"></path> <path style="fill:#6EBEC5;" d="M320.124,161.24c-3.328,3.328-15.915-3.87-28.12-16.075c-12.205-12.205-19.403-24.792-16.075-28.119 s15.915,3.87,28.119,16.075C316.254,145.325,323.452,157.912,320.124,161.24L320.124,161.24z"></path> <path style="fill:#5AABB3;" d="M281.639,155.515c-23.107-23.107-49.16-34.516-58.208-25.469L64.14,289.343 c-9.027,9.027,2.361,35.095,25.469,58.208l1.08,1.013l-0.052,0.052c9.259,9.446,16.545,19.299,21.304,28.28l192.031-192.031 C299.032,175.543,291.4,165.281,281.639,155.515z"></path> <path style="fill:#6EBEC5;" d="M278.291,116.234c-1.013,0-1.814,0.264-2.361,0.811c-0.553,0.553-0.816,1.359-0.811,2.377 c-0.005-1.018,0.258-1.824,0.811-2.377C276.482,116.498,277.283,116.234,278.291,116.234c5.1,0,15.527,6.671,25.696,16.829 C293.823,122.91,283.396,116.234,278.291,116.234L278.291,116.234z"></path> <path style="fill:#2F8E98;" d="M278.291,116.234c-1.013,0-1.814,0.264-2.361,0.811c-0.553,0.553-0.816,1.359-0.811,2.377 c0.016,5.115,6.707,15.563,16.886,25.743l12.045-12.045l-0.062-0.062C293.818,122.905,283.396,116.234,278.291,116.234 L278.291,116.234z"></path> </g> </g></svg>